<?xml version="1.0" encoding="UTF-8"?>
<svg id="Layer_1" data-name="Layer 1" xmlns="http://www.w3.org/2000/svg" viewBox="0 0 392 391">
  <defs>
    <style>
      .cls-1 {
        fill: #010101;
        stroke-width: 0px;
      }
    </style>
  </defs>
  <path id="lupa" class="cls-1" d="m350.93,386c-4.22-2.34-9.21-3.26-12.75-6.88-1.29-1.32-2.76-2.47-4.06-3.77-30.38-30.36-60.78-60.7-91.05-91.17-2.23-2.24-3.52-2.16-6-.58-27.34,17.39-57.19,25.62-89.59,23.28-55.62-4.02-97.05-30.91-124.01-79.42-14.68-26.42-20.02-55.36-16.73-85.39,4.75-43.29,24.39-78.53,59.24-105.04,22.03-16.75,46.9-26.58,74.29-29.27,38.27-3.76,73.37,5.37,104.55,28.26,26.8,19.67,45.55,45.4,54.9,77.24,12.75,43.38,7.42,84.8-16.3,123.57-2.81,4.59-2.85,4.57,1.06,8.48,27.41,27.4,54.79,54.82,82.23,82.19,7.45,7.43,15.49,14.38,18.28,25.17v10.37c-1.1.3-.98,1.38-1.17,2.1-1.74,6.44-5.5,11.4-10.71,15.45-3.74,2.9-8.28,3.82-12.55,5.41h-9.63ZM156.03,58.46c-54.67.15-98.89,44.49-98.57,98.85.32,54.81,44.57,98.87,98.92,98.5,54.65-.37,98.38-44.22,98.4-98.66.01-54.53-44.31-98.84-98.74-98.69Z"/>
  <path id="mancha_grande" data-name="mancha grande" class="cls-1" d="m237.71,160.83c1.31,11.79-10.27,20.12-20.95,16.27-6.08-2.2-9.96-6.72-10.17-13.23-.5-15.43-5.62-28.75-15.99-40.28-6.18-6.87-5.27-16.4,1.34-22.13,6.71-5.82,16.18-5,22.45,1.89,14.57,16.03,22.32,34.85,23.32,57.48Z"/>
  <path id="mancha_chica" data-name="mancha chica" class="cls-1" d="m149.91,74.23c6.43.13,12.75,1.15,19,2.54,8.7,1.94,13.75,9.46,12.41,18.13-1.23,7.97-8.57,13.58-17.21,12.59-6.59-.76-13.18-1.54-19.77-2.34-7.79-.94-13.15-8.3-12.7-16.46.42-7.73,6.8-14.07,14.57-14.46,1.23-.06,2.46,0,3.69,0Z"/>
</svg>